<?xml version="1.0" encoding="UTF-8" standalone="no"?>
<!DOCTYPE svg PUBLIC "-//W3C//DTD SVG 1.1//EN" "http://www.w3.org/Graphics/SVG/1.1/DTD/svg11.dtd">
<svg version="1.1" xmlns="http://www.w3.org/2000/svg" xmlns:xlink="http://www.w3.org/1999/xlink" preserveAspectRatio="xMidYMid meet" viewBox="0 0 640 640" width="32" height="32"><defs><path d="M563.84 320C563.84 445.58 454.58 547.54 320 547.54C185.42 547.54 76.16 445.58 76.16 320C76.16 194.42 185.42 92.46 320 92.46C454.58 92.46 563.84 194.42 563.84 320Z" id="c3hJnBTPZJ"></path><path d="M364.46 198.09L364.67 198.1L364.88 198.13L365.08 198.16L365.29 198.19L365.49 198.24L365.69 198.29L365.88 198.34L366.07 198.4L366.26 198.47L366.44 198.54L366.62 198.62L366.8 198.7L366.97 198.79L367.13 198.88L367.29 198.98L367.45 199.08L367.6 199.19L367.75 199.3L367.89 199.42L368.02 199.54L368.15 199.66L368.27 199.79L368.39 199.92L368.5 200.06L368.6 200.2L368.7 200.34L368.79 200.48L368.88 200.63L368.95 200.78L369.02 200.94L369.08 201.1L369.14 201.26L369.18 201.42L369.22 201.58L369.25 201.75L369.27 201.92L369.29 202.09L369.29 202.26L369.29 286.08L474.6 286.08L474.82 286.08L475.04 286.09L475.25 286.11L475.46 286.13L475.66 286.16L475.87 286.2L476.07 286.24L476.27 286.29L476.46 286.35L476.65 286.41L476.84 286.48L477.02 286.55L477.2 286.63L477.38 286.71L477.55 286.8L477.71 286.89L477.87 286.99L478.03 287.09L478.18 287.2L478.33 287.31L478.47 287.42L478.6 287.54L478.73 287.67L478.85 287.8L478.97 287.93L479.08 288.06L479.18 288.2L479.28 288.35L479.37 288.49L479.46 288.64L479.53 288.79L479.6 288.95L479.66 289.1L479.72 289.26L479.76 289.43L479.8 289.59L479.83 289.76L479.85 289.93L479.87 290.1L479.87 290.27L479.87 357.32L479.87 357.5L479.85 357.67L479.83 357.84L479.8 358L479.76 358.17L479.72 358.33L479.66 358.49L479.6 358.65L479.53 358.8L479.46 358.95L479.37 359.1L479.28 359.25L479.18 359.39L479.08 359.53L478.97 359.67L478.85 359.8L478.73 359.93L478.6 360.05L478.47 360.17L478.33 360.29L478.18 360.4L478.03 360.51L477.87 360.61L477.71 360.71L477.55 360.8L477.38 360.89L477.2 360.97L477.02 361.05L476.84 361.12L476.65 361.18L476.46 361.25L476.27 361.3L476.07 361.35L475.87 361.39L475.66 361.43L475.46 361.46L475.25 361.48L475.04 361.5L474.82 361.51L474.6 361.51L369.29 361.51L369.29 445.33L369.29 445.5L369.27 445.67L369.25 445.84L369.22 446.01L369.18 446.18L369.14 446.34L369.08 446.5L369.02 446.65L368.95 446.81L368.88 446.96L368.79 447.11L368.7 447.26L368.6 447.4L368.5 447.54L368.39 447.67L368.27 447.81L368.15 447.93L368.02 448.06L367.89 448.18L367.75 448.29L367.6 448.41L367.45 448.51L367.29 448.61L367.13 448.71L366.97 448.81L366.8 448.89L366.62 448.98L366.44 449.05L366.26 449.13L366.07 449.19L365.88 449.25L365.69 449.31L365.49 449.36L365.29 449.4L365.08 449.44L364.88 449.47L364.67 449.49L364.46 449.51L364.24 449.52L364.02 449.52L279.77 449.52L279.56 449.52L279.34 449.51L279.13 449.49L278.92 449.47L278.71 449.44L278.51 449.4L278.31 449.36L278.11 449.31L277.91 449.25L277.72 449.19L277.54 449.13L277.35 449.05L277.17 448.98L277 448.89L276.83 448.81L276.66 448.71L276.5 448.61L276.35 448.51L276.2 448.41L276.05 448.29L275.91 448.18L275.78 448.06L275.65 447.93L275.52 447.81L275.41 447.67L275.3 447.54L275.19 447.4L275.1 447.26L275 447.11L274.92 446.96L274.84 446.81L274.78 446.65L274.71 446.5L274.66 446.34L274.61 446.18L274.58 446.01L274.55 445.84L274.52 445.67L274.51 445.5L274.51 445.33L274.51 361.51L169.19 361.51L168.98 361.51L168.76 361.5L168.55 361.48L168.34 361.46L168.13 361.43L167.93 361.39L167.73 361.35L167.53 361.3L167.34 361.25L167.14 361.18L166.96 361.12L166.77 361.05L166.6 360.97L166.42 360.89L166.25 360.8L166.08 360.71L165.92 360.61L165.77 360.51L165.62 360.4L165.47 360.29L165.33 360.17L165.2 360.05L165.07 359.93L164.94 359.8L164.83 359.67L164.72 359.53L164.61 359.39L164.52 359.25L164.43 359.1L164.34 358.95L164.27 358.8L164.2 358.65L164.13 358.49L164.08 358.33L164.03 358.17L164 358L163.97 357.84L163.95 357.67L163.93 357.5L163.93 357.32L163.93 290.27L163.93 290.1L163.95 289.93L163.97 289.76L164 289.59L164.03 289.43L164.08 289.26L164.13 289.1L164.2 288.95L164.27 288.79L164.34 288.64L164.43 288.49L164.52 288.35L164.61 288.2L164.72 288.06L164.83 287.93L164.94 287.8L165.07 287.67L165.2 287.54L165.33 287.42L165.47 287.31L165.62 287.2L165.77 287.09L165.92 286.99L166.08 286.89L166.25 286.8L166.42 286.71L166.6 286.63L166.77 286.55L166.96 286.48L167.14 286.41L167.34 286.35L167.53 286.29L167.73 286.24L167.93 286.2L168.13 286.16L168.34 286.13L168.55 286.11L168.76 286.09L168.98 286.08L169.19 286.08L274.51 286.08L274.51 202.26L274.51 202.09L274.52 201.92L274.55 201.75L274.58 201.58L274.61 201.42L274.66 201.26L274.71 201.1L274.78 200.94L274.84 200.78L274.92 200.63L275 200.48L275.1 200.34L275.19 200.2L275.3 200.06L275.41 199.92L275.52 199.79L275.65 199.66L275.78 199.54L275.91 199.42L276.05 199.3L276.2 199.19L276.35 199.08L276.5 198.98L276.66 198.88L276.83 198.79L277 198.7L277.17 198.62L277.35 198.54L277.54 198.47L277.72 198.4L277.91 198.34L278.11 198.29L278.31 198.24L278.51 198.19L278.71 198.16L278.92 198.13L279.13 198.1L279.34 198.09L279.56 198.08L279.77 198.07L364.02 198.07L364.24 198.08L364.46 198.09Z" id="a1Z862nhWR"></path></defs><g><g><g><use xlink:href="#c3hJnBTPZJ" opacity="1" fill="#8977ff" fill-opacity="0.2"></use><g><use xlink:href="#c3hJnBTPZJ" opacity="1" fill-opacity="0" stroke="#ffffff" stroke-width="13" stroke-opacity="0.7"></use></g></g><g><use xlink:href="#a1Z862nhWR" opacity="1" fill="#ffffff" fill-opacity="0.7"></use><g><use xlink:href="#a1Z862nhWR" opacity="1" fill-opacity="0" stroke="#ffffff" stroke-width="13" stroke-opacity="0.7"></use></g></g></g></g></svg>