<?xml version="1.0" encoding="UTF-8" standalone="no"?>
<!DOCTYPE svg PUBLIC "-//W3C//DTD SVG 1.1//EN" "http://www.w3.org/Graphics/SVG/1.1/DTD/svg11.dtd">
<svg version="1.1" xmlns="http://www.w3.org/2000/svg" xmlns:xlink="http://www.w3.org/1999/xlink" preserveAspectRatio="xMidYMid meet" viewBox="0 0 640 640" width="32" height="32"><defs><path d="M563.84 320C563.84 445.58 454.58 547.54 320 547.54C185.42 547.54 76.16 445.58 76.16 320C76.16 194.42 185.42 92.46 320 92.46C454.58 92.46 563.84 194.42 563.84 320Z" id="b1LNjp6N12"></path><path d="M470.03 279.14C476.34 279.14 481.45 284.25 481.45 290.56C481.45 305.16 481.45 337.52 481.45 352.12C481.45 358.43 476.34 363.54 470.03 363.54C409.23 363.54 238.26 363.54 177.46 363.54C171.15 363.54 166.04 358.43 166.04 352.12C166.04 337.52 166.04 305.16 166.04 290.56C166.04 284.25 171.15 279.14 177.46 279.14C238.26 279.14 409.23 279.14 470.03 279.14Z" id="a1sPpWSwvY"></path></defs><g><g><g><use xlink:href="#b1LNjp6N12" opacity="1" fill="#0072ff" fill-opacity="0.2"></use><g><use xlink:href="#b1LNjp6N12" opacity="1" fill-opacity="0" stroke="#0072ff" stroke-width="13" stroke-opacity="0.5"></use></g></g><g><use xlink:href="#a1sPpWSwvY" opacity="1" fill="#0072ff" fill-opacity="0.5"></use><g><use xlink:href="#a1sPpWSwvY" opacity="1" fill-opacity="0" stroke="#0072ff" stroke-width="1" stroke-opacity="0.5"></use></g></g></g></g></svg>